# 3ds Max Wavefront OBJ Exporter v0.99 - (c)2007 guruware
# File Created: 14.05.2024 00:19:38

mtllib submarineSimplified.mtl

#
# object Retopo
#

v  -44.2825 -28.4741 9.5145
v  -22.4771 -49.1607 9.9975
v  15.3981 -14.5280 15.9940
v  -33.4769 -6.2769 -33.2978
v  18.5143 3.2643 -17.1536
v  27.5120 -12.9194 -31.0820
v  1.7053 -14.3050 -34.1007
v  -37.1822 -63.1748 -5.7432
v  -75.5485 -59.9829 -8.1740
v  -38.4010 -57.3269 -26.4880
v  27.3117 -0.6148 -13.7663
v  98.3328 -6.5497 -11.9548
v  55.5226 -26.6604 -26.7405
v  56.2282 -40.3192 0.0679
v  89.3844 -30.8948 6.7354
v  25.6790 -31.3291 4.1745
v  33.4380 -61.9604 -2.0751
v  1.9110 -59.0851 -23.3322
v  29.4065 -56.5003 -23.0630
v  47.6922 -46.0585 9.8196
v  16.7763 -49.0934 13.5762
v  -63.4052 -0.2589 -24.0032
v  -88.8004 -4.7149 -32.0463
v  -93.4687 -7.7358 -6.4339
v  -23.9290 -9.5483 11.0788
v  -24.9719 9.9015 -6.5963
v  -46.8145 -8.7814 8.0716
v  -17.1631 28.6139 -4.0222
v  -29.3567 -18.1261 -49.7626
v  -65.0966 -14.0951 -40.6399
v  -72.8811 -55.1431 -35.8178
v  -44.8644 -52.2782 -36.2843
v  14.3189 -37.1040 -48.9163
v  -111.7139 -18.5970 -18.6960
v  -55.5147 -49.0858 6.9622
v  81.9471 -16.3012 17.1831
v  83.5389 -21.0904 -21.0629
v  84.3602 -37.2864 -9.7122
v  20.6739 26.0773 -1.9842
v  18.0343 12.5992 26.1163
v  23.5296 -9.3410 8.9054
v  77.1052 -6.8468 8.5649
v  2.8571 20.9320 21.8862
v  -94.2175 -29.3255 -36.1765
v  -73.1930 -42.6382 -53.3690
v  -92.3273 -54.7608 -16.3932
v  -69.6655 -18.0590 -53.5576
v  -54.1345 -37.2465 -55.0662
v  41.6289 -53.2983 -23.5496
v  37.2894 -25.8465 -46.6565
v  59.0161 -42.1267 -23.6183
v  52.3974 -50.1470 -14.8069
v  -29.9462 -36.9438 -51.8818
v  -9.5870 -37.2258 -51.2542
v  -69.8999 -35.5232 2.0652
v  126.8476 -5.1367 4.6827
v  112.5899 3.1061 15.0074
v  96.7136 -15.8554 5.2570
v  97.8471 -9.6467 -0.8234
v  106.0309 10.8820 13.8847
v  72.7980 -0.3851 2.7413
v  90.0841 -32.4959 -3.2381
v  -0.2800 38.8117 7.5579
v  -0.8479 46.0694 21.1107
v  -0.9503 30.2010 -1.3336
v  -23.9129 -63.2504 -4.5152
v  11.6255 -62.9761 -0.9615
v  -5.5530 19.6374 25.6857
v  -19.6872 15.8125 23.2719
v  -8.4711 27.8224 12.3005
v  -5.9132 -18.1892 -47.7611
v  -7.7734 32.6767 16.2179
v  0.3027 36.9632 24.1464
v  -9.5540 52.6959 23.4782
v  77.6234 -38.8700 -8.8964
v  21.1831 -18.9991 -42.3949
v  -70.7573 -12.4072 1.9529
v  -42.4814 6.2634 -12.5210
v  -58.1744 0.0982 -31.5308
v  -55.7022 -17.1899 12.9689
v  88.6069 21.7731 15.7980
v  -95.2870 -35.2339 -18.7295
v  -95.7982 -31.5405 -5.7415
v  111.6573 21.9700 19.4612
v  127.9701 16.4569 20.1252
v  102.8299 30.0969 29.0203
v  -88.3226 -17.4095 -38.6527
v  129.2006 -0.8414 13.5106
v  126.6714 9.9882 23.0471
v  8.3835 -39.1423 10.2465
v  36.7656 -41.0637 -44.6407
v  -17.2698 -55.6335 -27.6828
v  -72.5535 -48.8972 5.3350
v  -93.5295 -44.3473 -4.6238
v  -50.8901 -4.5601 -34.1431
v  11.5602 35.6799 27.9804
v  9.0136 -51.7822 -31.8954
v  105.1549 -20.4609 -19.9490
v  -10.1700 60.2223 34.2116
v  7.7592 52.6794 27.6029
# 100 vertices

vn -0.0762 -0.4497 0.8899
vn -0.0293 -0.5934 0.8044
vn -0.0738 -0.4415 0.8942
vn 0.1281 0.3979 -0.9084
vn 0.1352 0.4484 -0.8836
vn 0.0752 0.5968 -0.7989
vn 0.0961 0.4548 -0.8854
vn 0.1193 0.3654 -0.9232
vn -0.0149 -0.9934 0.1135
vn -0.0125 -0.9993 -0.0345
vn 0.0209 -0.9986 -0.0488
vn 0.0985 0.5906 -0.8009
vn -0.0087 0.7533 -0.6576
vn 0.0815 0.4555 -0.8865
vn 0.0310 -0.5869 0.8091
vn -0.0691 -0.5047 0.8605
vn -0.0825 -0.4807 0.8730
vn 0.0622 -0.9601 -0.2726
vn 0.0345 -0.9186 -0.3938
vn 0.0460 -0.8425 -0.5367
vn 0.1278 0.3161 0.9401
vn 0.1454 0.3179 0.9369
vn 0.1877 0.0764 0.9793
vn -0.0331 0.9845 -0.1725
vn 0.0071 0.9990 -0.0432
vn -0.0014 0.9979 0.0643
vn -0.4146 0.7390 0.5310
vn -0.3936 0.8791 0.2688
vn -0.3304 0.7968 0.5059
vn -0.0850 -0.4520 0.8879
vn 0.2115 0.4760 -0.8537
vn 0.0395 0.5103 -0.8591
vn 0.0747 0.4585 -0.8855
vn 0.0296 0.9612 -0.2741
vn -0.0599 0.9595 -0.2752
vn 0.0310 0.9483 -0.3158
vn 0.0221 -0.9663 -0.2565
vn 0.0945 0.4119 -0.9063
vn 0.0707 0.4809 -0.8739
vn 0.0846 -0.7712 -0.6309
vn 0.0538 -0.6533 -0.7552
vn 0.0446 -0.8069 -0.5890
vn -0.3910 0.8318 -0.3940
vn -0.5631 0.8215 -0.0898
vn -0.4004 0.9159 0.0266
vn -0.0833 0.3247 0.9421
vn -0.0950 0.3225 0.9418
vn -0.0912 0.2787 0.9560
vn -0.1341 -0.5221 0.8423
vn 0.0915 -0.2702 -0.9584
vn 0.0915 -0.1733 -0.9806
vn 0.1227 -0.3919 -0.9118
vn 0.9944 0.0076 0.1051
vn 0.9635 0.2661 0.0285
vn 0.9867 0.0979 0.1299
vn 0.1025 0.8787 0.4663
vn -0.1297 0.8906 0.4358
vn -0.0144 0.9098 0.4148
vn 0.0444 0.9089 0.4146
vn -0.0543 0.8876 0.4574
vn 0.0808 0.8818 0.4647
vn -0.8793 0.4379 0.1871
vn -0.9414 0.3159 0.1184
vn -0.9705 0.2323 0.0645
vn -0.9087 -0.2079 -0.3621
vn -0.7157 -0.4357 -0.5458
vn -0.8618 -0.3658 -0.3513
vn 0.0990 0.1216 -0.9876
vn 0.0383 0.1635 -0.9858
vn 0.0844 0.0048 -0.9964
vn 0.5842 -0.5025 -0.6374
vn 0.5375 -0.3365 -0.7732
vn 0.7732 -0.3492 -0.5294
vn 0.4605 -0.8370 -0.2956
vn 0.2221 -0.9431 -0.2473
vn 0.3157 -0.8860 -0.3396
vn 0.0508 -0.8632 -0.5022
vn 0.0282 -0.7490 -0.6619
vn 0.0202 -0.8198 -0.5722
vn 0.0741 -0.4512 -0.8894
vn 0.1050 -0.6100 -0.7854
vn -0.1222 0.3133 0.9418
vn -0.1972 -0.9668 -0.1624
vn -0.0448 -0.9989 0.0115
vn -0.4037 -0.9000 -0.1644
vn -0.0277 -0.5267 0.8496
vn 0.1440 -0.5727 0.8070
vn 0.1311 -0.4821 0.8663
vn -0.0693 -0.4809 0.8740
vn -0.0734 -0.7091 0.7013
vn -0.0818 -0.4948 0.8651
vn -0.0363 -0.5568 0.8298
vn -0.0599 -0.3608 0.9307
vn -0.0445 -0.3746 0.9261
vn 0.0792 0.3945 -0.9155
vn 0.0954 0.4881 -0.8675
vn 0.0696 0.4742 -0.8777
vn 0.0179 0.9992 -0.0369
vn 0.0946 0.8608 -0.5000
vn 0.1499 0.9506 -0.2719
vn 0.9870 -0.1434 -0.0720
vn 0.9184 -0.3793 0.1128
vn 0.9690 -0.1991 0.1462
vn 0.9825 0.1260 -0.1372
vn 0.9819 0.1290 -0.1386
vn 0.9985 0.0404 0.0364
vn 0.0838 0.4568 -0.8856
vn -0.0529 -0.8282 0.5579
vn -0.0417 -0.8546 0.5177
vn -0.0240 -0.7703 0.6372
vn -0.0187 -0.9935 0.1127
vn -0.0092 -0.9937 0.1115
vn 0.0479 -0.5081 0.8600
vn -0.0662 -0.3695 0.9269
vn -0.1178 -0.4219 0.8990
vn -0.1909 0.8338 0.5181
vn 0.0129 0.8821 0.4708
vn -0.1509 0.8791 0.4522
vn 0.0873 -0.1539 -0.9842
vn 0.1462 0.0780 -0.9862
vn 0.0973 -0.0018 -0.9953
vn 0.0330 -0.2235 -0.9741
vn 0.0924 0.0024 -0.9957
vn 0.1153 -0.4244 0.8981
vn 0.2605 -0.3907 0.8829
vn 0.3859 -0.3107 0.8687
vn -0.8587 -0.0965 -0.5033
vn -0.9510 -0.0648 -0.3024
vn -0.8831 -0.2794 -0.3770
vn 0.5035 -0.8521 0.1430
vn 0.7063 -0.7007 0.1009
vn 0.7029 -0.6143 0.3585
vn -0.0875 -0.4804 0.8727
vn -0.1005 -0.5444 0.8328
vn -0.0661 -0.4509 0.8901
vn 0.0763 0.4862 -0.8705
vn 0.0750 0.1613 -0.9841
vn 0.0848 0.4121 -0.9072
vn 0.2570 0.9352 -0.2438
vn 0.2532 0.9518 -0.1732
vn 0.2547 0.9669 -0.0159
vn -0.0595 0.8031 0.5928
vn -0.0087 0.9940 0.1095
vn -0.2168 0.9579 0.1884
vn 0.0049 0.9941 -0.1086
vn 0.0131 0.9984 -0.0549
vn 0.0073 0.9864 -0.1640
vn -0.0747 0.8847 0.4601
vn -0.0700 0.8876 0.4553
vn -0.1097 -0.4651 0.8784
vn -0.0948 -0.4750 0.8749
vn -0.0664 -0.4675 0.8815
vn -0.0706 -0.4869 0.8706
vn -0.0729 -0.4607 0.8846
vn -0.1504 -0.4764 0.8663
vn -0.0782 -0.4643 0.8822
vn -0.0572 -0.4842 0.8731
vn -0.0253 0.9996 0.0097
vn 0.0759 0.9953 -0.0604
vn -0.0261 0.9997 -0.0001
vn 0.1023 0.5241 -0.8455
vn 0.1650 0.5091 -0.8448
vn -0.9668 -0.1783 -0.1830
vn -0.9996 -0.0159 -0.0213
vn -0.0982 -0.4731 0.8755
vn -0.0488 -0.4927 0.8688
vn -0.0737 -0.4489 0.8905
vn -0.2383 -0.4184 0.8764
vn -0.2689 -0.4817 0.8340
vn 0.1820 0.5535 -0.8127
vn 0.1706 0.5654 -0.8070
vn 0.1371 0.5028 -0.8535
vn 0.0799 0.4656 -0.8814
vn 0.0464 0.4700 -0.8814
vn 0.0033 -0.4304 0.9026
vn -0.0883 -0.2872 0.9538
vn -0.1240 -0.4906 0.8625
vn -0.5495 -0.0858 -0.8311
vn -0.6057 0.2347 -0.7603
vn -0.4058 0.1527 -0.9011
vn -0.0423 0.4102 -0.9110
vn 0.0784 0.4872 -0.8698
vn 0.1083 0.4689 -0.8766
vn 0.0889 -0.8866 -0.4539
vn 0.0293 -0.9221 -0.3859
vn -0.3551 -0.7766 -0.5204
vn -0.5994 -0.5984 -0.5316
vn -0.3889 -0.7816 -0.4877
vn 0.3533 0.8586 0.3714
vn 0.4435 0.8176 0.3671
vn 0.4061 0.8052 0.4321
vn -0.0593 -0.9078 0.4152
vn -0.0629 -0.8893 0.4530
vn -0.0236 -0.9489 0.3146
vn 0.9951 0.0321 0.0931
vn -0.0880 -0.4603 0.8834
vn -0.0844 -0.3273 0.9411
vn 0.3138 -0.4796 0.8194
vn 0.2736 -0.5844 0.7640
vn 0.2167 -0.7173 0.6622
vn 0.1251 0.4859 -0.8650
vn 0.0615 0.3793 -0.9232
vn 0.0223 0.4809 -0.8765
vn -0.0257 -0.4979 0.8668
vn -0.0891 -0.6345 0.7677
vn -0.1133 -0.4869 0.8661
vn 0.3077 -0.4457 -0.8407
vn 0.4252 -0.5734 -0.7003
vn 0.0775 -0.6272 -0.7750
vn 0.0474 -0.9134 -0.4043
vn 0.1355 -0.8633 -0.4861
vn -0.1549 -0.5350 0.8305
vn -0.3140 -0.7610 0.5677
vn -0.0646 -0.7814 0.6206
vn -0.1704 -0.6329 0.7552
vn -0.0523 -0.8858 0.4611
vn -0.0483 -0.8392 0.5417
vn -0.7739 -0.6189 0.1345
vn -0.6719 -0.6532 0.3492
vn -0.8080 -0.4533 0.3765
vn -0.4534 0.2364 0.8594
vn -0.5571 -0.0903 0.8255
vn 0.0033 0.2935 0.9560
vn 0.7837 0.2975 -0.5453
vn 0.8819 0.3610 -0.3031
vn 0.9181 -0.0919 -0.3856
vn 0.0207 -0.2608 -0.9652
vn 0.0709 -0.0787 -0.9944
vn -0.0095 0.9996 -0.0279
vn 0.0136 0.9995 -0.0287
vn -0.0114 0.9996 0.0244
vn 0.0869 0.2583 -0.9622
vn 0.0773 0.4653 -0.8818
vn 0.7176 0.3991 -0.5708
vn 0.5802 0.3822 -0.7192
vn 0.8158 0.2197 -0.5349
vn -0.7392 -0.4184 0.5278
vn -0.8049 -0.3640 0.4687
vn -0.8920 -0.1366 0.4309
vn -0.0379 0.8122 0.5821
vn 0.1933 0.4934 -0.8480
vn -0.0751 0.5266 0.8468
vn -0.0807 0.5410 0.8372
vn -0.0705 0.4034 0.9123
vn -0.0501 -0.5752 0.8165
vn -0.1534 -0.6313 0.7602
vn -0.1368 -0.5229 0.8414
vn 0.0300 0.9329 -0.3589
vn 0.1226 0.9735 -0.1933
vn -0.0920 0.8770 0.4716
vn -0.0169 0.8885 0.4585
vn -0.0294 0.8911 0.4528
vn -0.0647 -0.7799 0.6226
vn 0.0201 -0.9951 -0.0968
vn 0.9775 0.0400 0.2071
vn 0.9792 0.1933 -0.0617
vn 0.9701 0.1171 -0.2126
vn 0.0357 0.5282 -0.8484
vn 0.0645 0.4665 -0.8822
vn -0.3455 0.3495 -0.8709
vn -0.0991 -0.0008 -0.9951
vn -0.5184 -0.1279 -0.8455
vn -0.1854 0.9358 -0.2999
vn -0.2500 0.8060 -0.5365
vn -0.1881 0.9465 -0.2622
vn -0.9937 0.1068 -0.0335
vn -0.0590 0.4860 -0.8720
vn -0.0250 -0.5041 0.8633
vn -0.0279 -0.6217 0.7828
vn -0.0157 -0.4673 0.8840
vn 0.0582 0.5669 -0.8217
vn -0.0758 -0.4855 0.8709
vn 0.1011 -0.9075 -0.4078
vn 0.0728 -0.8113 -0.5801
vn 0.1984 -0.8746 -0.4423
vn 0.0524 -0.8758 -0.4798
vn -0.0619 0.9151 0.3984
vn -0.1771 0.8515 0.4935
vn -0.0190 0.9335 0.3582
vn 0.0330 0.8911 0.4525
vn 0.4796 0.4189 0.7710
vn 0.3689 0.3626 0.8558
vn 0.6328 0.1285 0.7636
vn -0.8346 0.2044 -0.5115
vn -0.5367 0.3203 -0.7806
vn -0.6974 0.4295 -0.5737
vn 0.0831 -0.4465 0.8909
vn 0.0194 -0.4695 0.8827
vn -0.0835 -0.4566 0.8858
vn -0.3147 0.3956 0.8628
vn -0.2980 0.4510 0.8413
vn -0.1608 0.2086 0.9647
vn -0.4338 0.8220 0.3689
vn -0.3379 0.8457 0.4130
vn -0.3378 0.8463 0.4120
vn -0.0900 0.2383 0.9670
vn -0.0750 0.5573 0.8269
vn -0.0604 0.7746 0.6296
vn -0.0513 0.6298 0.7751
vn -0.0421 0.6717 0.7396
vn -0.0801 0.4937 0.8659
vn 0.0880 -0.0379 -0.9954
vn 0.0913 -0.4600 -0.8832
vn 0.1958 -0.6852 -0.7016
vn -0.5592 0.2397 -0.7936
vn -0.3606 0.3578 -0.8614
vn -0.0966 0.4044 -0.9095
vn 0.7810 0.2873 -0.5545
vn 0.7600 0.3929 -0.5178
vn 0.9344 0.2282 -0.2735
vn -0.0719 0.9500 -0.3037
vn 0.0429 0.9027 -0.4281
vn 0.0649 0.4801 -0.8748
vn -0.0616 0.8764 0.4776
vn -0.1641 0.8812 0.4433
vn -0.0548 0.9982 0.0238
vn -0.0326 0.6794 0.7330
vn -0.0659 0.5640 0.8231
vn -0.1290 0.5697 0.8117
vn 0.9333 -0.3538 -0.0617
vn 0.9213 -0.3314 0.2034
vn 0.9853 -0.1702 -0.0128
vn 0.9956 -0.0163 0.0918
vn 0.9952 -0.0106 0.0973
vn 0.9953 0.0037 0.0971
vn -0.1065 0.2821 0.9535
vn -0.0956 0.1767 0.9796
vn -0.1016 0.2101 0.9724
vn -0.0484 0.8765 0.4790
vn -0.0267 0.8731 0.4868
vn -0.0411 0.9083 0.4163
vn 0.0471 -0.8687 -0.4931
vn 0.0222 -0.8776 -0.4788
vn 0.0889 -0.8364 -0.5408
vn 0.0347 -0.8357 -0.5480
vn -0.6548 -0.7516 0.0800
vn -0.5851 -0.8050 -0.0983
vn -0.4254 -0.9049 -0.0149
vn -0.0503 -0.4956 0.8671
vn 0.0821 -0.5672 0.8195
vn -0.0733 -0.5231 0.8491
vn 0.0078 0.2870 -0.9579
vn 0.1244 0.5086 -0.8520
vn -0.2074 -0.4721 0.8568
vn 0.0344 -0.5137 0.8573
vn -0.2359 -0.4079 0.8820
vn -0.3161 -0.2951 -0.9017
vn -0.0400 -0.3255 -0.9447
vn -0.0586 -0.0926 -0.9940
vn -0.2213 -0.1579 0.9623
vn -0.2650 0.2661 0.9268
vn 0.1033 0.1826 0.9777
vn 0.9948 0.0107 0.1011
vn 0.9701 -0.0401 0.2395
vn 0.9867 -0.1535 0.0543
vn -0.0463 -0.6381 0.7686
vn -0.0611 -0.4674 0.8819
vn 0.0587 -0.5518 -0.8319
vn 0.0737 -0.4597 -0.8850
vn 0.0315 -0.6789 -0.7336
vn 0.0977 -0.0455 -0.9942
vn 0.0580 0.4933 -0.8679
vn -0.0683 -0.4921 0.8679
vn -0.2183 -0.4948 0.8411
vn -0.0661 0.5525 0.8309
vn -0.0909 0.5653 0.8198
vn -0.1686 0.7684 0.6174
vn 0.0641 0.1184 0.9909
vn -0.1044 -0.0709 0.9920
vn 0.0085 0.2992 0.9542
vn 0.9937 -0.0087 0.1122
vn 0.9565 -0.0617 0.2851
vn 0.9677 -0.0631 0.2439
vn 0.0119 0.9176 0.3972
vn -0.0788 -0.4717 0.8782
vn -0.5931 0.7775 0.2091
vn -0.5591 0.7919 0.2456
vn -0.9864 0.0525 -0.1555
vn -0.9980 -0.0253 -0.0571
vn -0.9954 0.0460 -0.0843
vn 0.2383 -0.9386 -0.2494
vn 0.1179 -0.9929 -0.0145
vn 0.2681 -0.9623 -0.0452
vn -0.0154 -0.9100 -0.4142
vn 0.0397 -0.8789 -0.4753
vn 0.0411 -0.8807 -0.4719
vn 0.6510 -0.6889 -0.3187
vn 0.7421 -0.6130 -0.2712
vn 0.7698 -0.6151 -0.1703
vn 0.5665 -0.7496 -0.3424
vn 0.4451 -0.8152 -0.3707
vn 0.6324 -0.7058 -0.3192
vn 0.0262 0.6257 -0.7796
vn -0.3031 0.5871 -0.7506
vn -0.0877 0.4663 -0.8803
vn -0.0776 -0.5051 0.8596
vn -0.1978 -0.6124 0.7654
vn -0.0032 -0.4629 0.8864
vn -0.0262 -0.5176 0.8552
vn -0.1956 -0.1917 0.9618
vn 0.9943 -0.0006 0.1067
vn 0.9956 0.0088 0.0931
vn 0.9814 -0.0248 0.1903
vn 0.0732 -0.4079 -0.9101
vn 0.0948 -0.2679 -0.9588
vn -0.0272 -0.9681 0.2489
vn 0.0407 0.4520 -0.8911
vn -0.0072 -0.4486 0.8937
vn 0.3095 0.7989 0.5158
vn 0.5407 0.6120 0.5772
vn 0.7081 0.1530 0.6893
vn 0.8200 0.3158 -0.4773
vn 0.8169 0.3028 -0.4910
vn 0.8184 0.3110 -0.4833
vn -0.1930 0.9358 -0.2951
vn -0.1967 0.8739 -0.4445
vn 0.0332 0.9570 -0.2882
vn -0.9417 -0.0971 -0.3220
vn -0.9993 0.0273 -0.0265
vn -0.9197 0.0843 -0.3834
vn -0.9239 -0.2377 0.3000
vn -0.8097 -0.4678 0.3542
vn -0.8415 -0.2977 0.4508
vn 0.0064 0.9997 0.0236
vn -0.1558 0.8730 0.4621
vn -0.2131 0.8659 0.4526
vn -0.1280 0.8810 0.4555
vn 0.0153 0.9825 0.1857
vn -0.5494 0.7500 0.3684
vn -0.6612 0.6234 0.4174
vn -0.5850 0.7092 0.3934
vn 0.8214 0.2684 -0.5033
vn 0.8115 0.2988 -0.5022
vn 0.6931 0.3284 -0.6417
vn -0.9952 -0.0312 0.0929
vn -0.9601 -0.1691 0.2229
vn -0.9547 -0.1609 0.2501
vn 0.0928 -0.0011 -0.9957
vn 0.0898 0.4358 -0.8956
vn 0.0419 -0.9000 -0.4338
vn 0.0655 -0.8863 -0.4584
vn -0.0184 -0.9954 0.0942
vn -0.9572 -0.1883 0.2200
vn -0.8669 -0.4911 0.0860
vn -0.8048 -0.4719 0.3600
vn -0.4036 -0.8896 0.2137
vn -0.1691 -0.9176 0.3598
vn 0.4594 -0.3654 0.8096
vn 0.4526 -0.3506 0.8199
vn 0.2764 -0.3721 0.8861
vn 0.7896 -0.2558 0.5578
vn 0.8758 -0.2068 0.4361
vn 0.8889 -0.2488 0.3847
vn 0.7790 -0.2357 0.5810
vn 0.5798 -0.3817 0.7198
vn 0.5683 -0.3602 0.7398
vn -0.6801 -0.1698 0.7132
vn -0.7949 -0.0499 0.6047
vn -0.9080 -0.1542 0.3896
vn -0.0469 0.2939 -0.9547
vn 0.1354 0.3090 -0.9414
vn 0.0877 0.5356 -0.8399
vn 0.0826 0.4752 -0.8760
vn 0.0561 0.6284 -0.7759
vn 0.2699 0.8467 0.4585
vn 0.2529 0.8310 0.4955
vn 0.2948 0.7747 0.5595
vn 0.8967 -0.4426 -0.0022
vn 0.9368 -0.3499 -0.0082
vn 0.8781 -0.4583 0.1374
# 470 vertex normals

o Retopo
g Retopo
usemtl default
s 1
f 1//1 2//2 3//3 
f 4//4 5//5 6//6 
f 6//7 7//8 4//4 
f 8//9 9//10 10//11 
f 11//12 12//13 13//14 
f 14//15 15//16 16//17 
f 17//18 18//19 19//20 
f 20//21 16//22 21//23 
f 22//24 23//25 24//26 
f 25//27 26//28 27//29 
f 3//3 25//30 1//1 
f 5//31 26//32 28//33 
f 29//34 30//35 4//36 
f 10//11 9//10 31//37 
f 6//38 11//12 13//39 
f 32//40 33//41 19//42 
f 23//43 34//44 24//45 
f 35//46 2//47 1//48 
f 36//49 16//17 15//16 
f 13//50 37//51 38//52 
f 11//53 39//54 40//55 
f 41//56 42//57 11//58 
f 39//59 43//60 40//61 
f 26//62 25//63 28//64 
f 44//65 45//66 46//67 
f 47//68 29//69 48//70 
f 49//71 50//72 51//73 
f 52//74 17//75 49//76 
f 32//77 45//78 53//79 
f 54//80 33//41 32//81 
f 1//48 55//82 35//46 
f 31//83 9//84 46//85 
f 21//86 17//87 20//88 
f 35//89 8//90 2//91 
f 56//92 57//93 58//94 
f 59//95 60//96 56//97 
f 61//98 12//99 11//100 
f 12//101 59//102 62//103 
f 43//104 63//105 64//106 
f 28//33 65//107 5//31 
f 66//108 67//109 2//110 
f 66//111 10//11 67//112 
f 40//113 68//114 69//115 
f 69//116 68//117 70//118 
f 54//119 71//120 33//121 
f 48//122 29//69 53//123 
f 72//124 43//125 73//126 
f 63//127 72//128 74//129 
f 17//130 52//131 20//132 
f 52//133 75//134 14//135 
f 76//136 50//137 71//138 
f 50//139 6//140 13//141 
f 77//142 78//143 79//144 
f 26//145 5//146 4//147 
f 78//148 77//142 27//149 
f 80//150 77//151 55//152 
f 42//153 58//94 81//154 
f 36//155 15//156 58//157 
f 59//158 12//159 61//160 
f 59//161 61//162 60//96 
f 44//163 46//67 82//164 
f 77//165 83//166 55//167 
f 81//168 58//94 84//169 
f 85//170 84//171 86//172 
f 61//173 81//174 60//96 
f 86//175 84//176 85//177 
f 45//178 44//179 47//180 
f 87//181 22//182 30//183 
f 31//184 45//78 32//185 
f 31//186 46//187 45//188 
f 37//189 62//190 38//191 
f 75//192 15//193 14//194 
f 40//55 41//195 11//53 
f 25//196 3//197 40//113 
f 88//198 89//199 57//200 
f 85//201 88//202 84//203 
f 90//204 3//3 2//2 
f 2//91 17//205 21//206 
f 50//207 49//208 91//209 
f 50//137 33//121 71//120 
f 18//210 32//40 19//42 
f 92//211 17//18 10//11 
f 93//212 94//213 9//214 
f 93//215 9//216 8//217 
f 44//218 83//219 34//220 
f 34//221 83//222 24//223 
f 50//224 13//225 51//226 
f 51//227 13//50 75//228 
f 4//229 79//230 26//231 
f 95//232 4//4 30//233 
f 43//234 73//235 96//236 
f 96//237 73//238 43//239 
f 65//240 43//60 39//59 
f 39//241 5//31 65//107 
f 27//242 1//243 25//244 
f 55//245 1//246 80//247 
f 71//248 4//36 7//249 
f 76//250 71//251 7//252 
f 2//110 67//109 17//253 
f 17//18 67//254 10//11 
f 62//255 37//256 12//257 
f 12//258 37//259 13//14 
f 34//260 87//261 44//262 
f 87//263 47//264 44//265 
f 28//64 25//63 69//266 
f 69//115 25//196 40//113 
f 84//203 88//202 57//267 
f 57//268 89//269 84//270 
f 60//96 57//271 56//97 
f 60//272 58//94 57//93 
f 19//273 49//76 17//75 
f 91//274 49//275 19//276 
f 28//277 69//116 70//278 
f 28//277 70//279 65//280 
f 63//281 74//282 64//283 
f 73//284 74//285 72//286 
f 16//17 36//49 3//287 
f 16//288 3//3 90//289 
f 55//290 94//291 93//292 
f 82//293 94//294 55//295 
f 36//296 42//297 41//298 
f 58//299 42//300 36//301 
f 50//137 91//302 33//121 
f 19//42 33//303 91//304 
f 72//305 63//306 65//307 
f 65//308 63//309 43//310 
f 50//139 76//311 6//312 
f 7//8 6//7 76//313 
f 24//314 77//315 22//316 
f 24//317 83//318 77//319 
f 58//320 15//321 62//322 
f 15//323 38//324 62//325 
f 21//326 16//327 90//328 
f 21//329 90//330 2//331 
f 97//332 19//333 18//334 
f 18//210 19//42 97//335 
f 83//336 44//337 82//338 
f 82//339 55//340 83//341 
f 81//342 86//343 84//171 
f 81//344 84//345 86//346 
f 98//347 37//348 12//349 
f 37//350 98//351 12//352 
f 59//353 58//354 62//355 
f 59//356 56//357 58//94 
f 45//358 48//359 53//360 
f 48//70 45//361 47//68 
f 60//96 81//362 84//171 
f 60//363 84//345 58//364 
f 80//365 1//243 27//242 
f 77//142 80//366 27//367 
f 3//368 36//369 41//370 
f 3//371 41//372 40//373 
f 68//117 43//374 70//118 
f 40//113 43//375 68//114 
f 22//376 77//377 79//144 
f 22//378 79//379 30//380 
f 32//381 10//382 31//383 
f 92//384 10//385 32//386 
f 49//387 51//388 52//389 
f 52//390 51//391 75//392 
f 23//393 22//182 87//181 
f 23//394 87//395 34//260 
f 35//89 93//396 8//397 
f 55//82 93//292 35//46 
f 85//398 84//399 89//400 
f 85//401 89//402 88//403 
f 13//50 38//404 75//405 
f 75//192 38//406 15//193 
f 57//267 88//202 56//407 
f 56//92 88//408 57//93 
f 11//409 6//410 5//411 
f 11//412 5//413 39//414 
f 87//415 30//35 47//416 
f 29//34 47//417 30//35 
f 65//418 70//419 72//420 
f 70//421 43//422 72//423 
f 78//424 26//231 79//230 
f 26//425 78//426 27//427 
f 42//57 61//428 11//58 
f 42//429 81//430 61//431 
f 99//432 64//433 74//434 
f 74//435 73//436 99//437 
f 54//80 32//81 53//360 
f 54//119 53//438 29//439 
f 18//440 92//441 32//40 
f 17//18 92//211 18//19 
f 4//36 71//248 29//34 
f 71//120 54//119 29//439 
f 66//108 2//110 8//90 
f 66//442 8//9 10//11 
f 82//443 46//444 94//445 
f 94//213 46//446 9//447 
f 64//448 99//449 73//450 
f 73//451 64//452 100//453 
f 64//454 73//455 43//456 
f 73//457 100//458 64//459 
f 30//233 79//460 95//461 
f 4//462 95//463 79//464 
f 14//465 16//466 20//467 
f 52//468 14//469 20//470 
# 0 polygons - 200 triangles

